
<svg width="451px" height="198px" viewBox="495 1037 451 198" version="1.1" xmlns="http://www.w3.org/2000/svg" xmlns:xlink="http://www.w3.org/1999/xlink">
    <!-- Generator: Sketch 39.1 (31720) - http://www.bohemiancoding.com/sketch -->
    <desc>Created with Sketch.</desc>
    <defs></defs>
    <g id="Platform-Image" stroke="none" stroke-width="1" fill="none" fill-rule="evenodd" transform="translate(495.000000, 1037.000000)">
        <g id="1464753170_computer">
            <g id="Layer_1">
                <ellipse id="Oval" fill="#76C2AF" cx="98.8951216" cy="98.5" rx="98.8951216" ry="98.5"></ellipse>
                <g id="Group" opacity="0.2" transform="translate(61.809451, 153.906250)" fill="#231F20">
                    <path d="M74.1713412,6.15625 C74.1713412,9.55757812 71.4053683,12.3125 67.9903961,12.3125 L6.1809451,12.3125 C2.76597293,12.3125 0,9.55757812 0,6.15625 L0,6.15625 C0,2.75492187 2.76597293,0 6.1809451,0 L67.9903961,0 C71.4053683,0 74.1713412,2.75492187 74.1713412,6.15625 L74.1713412,6.15625 L74.1713412,6.15625 Z" id="Shape"></path>
                </g>
                <path d="M135.980792,153.90625 C135.980792,157.307578 133.214819,160.0625 129.799847,160.0625 L67.9903961,160.0625 C64.5754239,160.0625 61.809451,157.307578 61.809451,153.90625 L61.809451,153.90625 C61.809451,150.504922 64.5754239,147.75 67.9903961,147.75 L129.799847,147.75 C133.214819,147.75 135.980792,150.504922 135.980792,153.90625 L135.980792,153.90625 L135.980792,153.90625 Z" id="Shape" fill="#FFFFFF"></path>
                <path d="M114.347484,129.28125 C114.347484,129.28125 111.257012,147.75 123.618902,147.75 L74.1713412,147.75 C86.5332314,147.75 83.4427588,129.28125 83.4427588,129.28125 L114.347484,129.28125 L114.347484,129.28125 Z" id="Shape" fill="#E0E0D1"></path>
                <g id="Group" opacity="0.2" transform="translate(37.085671, 43.093750)" fill="#231F20">
                    <g id="Shape">
                        <path d="M123.618902,80.03125 C123.618902,86.8308281 118.083866,92.34375 111.257012,92.34375 L12.3618902,92.34375 C5.53503634,92.34375 0,86.8308281 0,80.03125 L0,12.3125 C0,5.51292187 5.53503634,0 12.3618902,0 L111.257012,0 C118.083866,0 123.618902,5.51292187 123.618902,12.3125 L123.618902,80.03125 L123.618902,80.03125 Z"></path>
                    </g>
                </g>
                <g id="Group" transform="translate(37.085671, 36.937500)">
                    <path d="M12.3618902,87.7265625 C8.10012855,87.7265625 4.63570882,84.2759844 4.63570882,80.03125 L4.63570882,12.3125 C4.63570882,8.06776563 8.10012855,4.6171875 12.3618902,4.6171875 L111.257012,4.6171875 C115.518773,4.6171875 118.983193,8.06776563 118.983193,12.3125 L118.983193,80.03125 C118.983193,84.2759844 115.518773,87.7265625 111.257012,87.7265625 L12.3618902,87.7265625 L12.3618902,87.7265625 Z" id="Shape" fill="#4F5D73"></path>
                    <path d="M111.257012,9.234375 C112.959862,9.234375 114.347484,10.6164531 114.347484,12.3125 L114.347484,80.03125 C114.347484,81.7272969 112.959862,83.109375 111.257012,83.109375 L12.3618902,83.109375 C10.6590398,83.109375 9.27141765,81.7272969 9.27141765,80.03125 L9.27141765,12.3125 C9.27141765,10.6164531 10.6590398,9.234375 12.3618902,9.234375 L111.257012,9.234375 L111.257012,9.234375 Z M111.257012,0 L12.3618902,0 C5.53503634,0 0,5.51292188 0,12.3125 L0,80.03125 C0,86.8308281 5.53503634,92.34375 12.3618902,92.34375 L111.257012,92.34375 C118.083866,92.34375 123.618902,86.8308281 123.618902,80.03125 L123.618902,12.3125 C123.618902,5.51292188 118.083866,0 111.257012,0 L111.257012,0 L111.257012,0 Z" id="Shape" fill="#FFFFFF"></path>
                </g>
                <g id="Group" opacity="0.2" transform="translate(80.352286, 41.831293)" fill="#FFFFFF">
                    <polygon id="Shape" points="74.1744317 80.9212537 74.1744317 0.893081797 0.772618137 0.893081797 46.9844542 80.9212537"></polygon>
                </g>
            </g>
        </g>
        <g id="1464753163_browser" transform="translate(129.324390, 0.000000)">
            <g id="Layer_1">
                <ellipse id="Oval" fill="#77B3D4" cx="98.8951216" cy="98.5" rx="98.8951216" ry="98.5"></ellipse>
                <g id="Group" opacity="0.2" transform="translate(37.085671, 43.093750)" fill="#231F20">
                    <path d="M123.618902,104.65625 C123.618902,111.455828 118.083866,116.96875 111.257012,116.96875 L12.3618902,116.96875 C5.53503634,116.96875 0,111.455828 0,104.65625 L0,12.3125 C0,5.51292187 5.53503634,0 12.3618902,0 L111.257012,0 C118.083866,0 123.618902,5.51292187 123.618902,12.3125 L123.618902,104.65625 L123.618902,104.65625 Z" id="Shape"></path>
                </g>
                <path d="M37.0856706,66.1796875 L37.0856706,141.59375 C37.0856706,148.393328 42.6207069,153.90625 49.4475608,153.90625 L148.342682,153.90625 C155.169536,153.90625 160.704573,148.393328 160.704573,141.59375 L160.704573,66.1796875 L37.0856706,66.1796875 L37.0856706,66.1796875 Z" id="Shape" fill="#FFFFFF"></path>
                <g id="Group" opacity="0.2" transform="translate(37.085671, 43.093750)" fill="#231F20">
                    <path d="M123.618902,12.3125 C123.618902,5.51292187 118.083866,0 111.257012,0 L12.3618902,0 C5.53503634,0 0,5.51292187 0,12.3125 L0,30.78125 L123.618902,30.78125 L123.618902,12.3125 L123.618902,12.3125 Z" id="Shape"></path>
                </g>
                <path d="M160.704573,49.25 C160.704573,42.4504219 155.169536,36.9375 148.342682,36.9375 L49.4475608,36.9375 C42.6207069,36.9375 37.0856706,42.4504219 37.0856706,49.25 L37.0856706,67.71875 L160.704573,67.71875 L160.704573,49.25 L160.704573,49.25 Z" id="Shape" fill="#E0E0D1"></path>
                <ellipse id="Oval" fill="#E0995E" cx="71.0808686" cy="52.328125" rx="6.1809451" ry="6.15625"></ellipse>
                <ellipse id="Oval" fill="#76C2AF" cx="89.6237039" cy="52.328125" rx="6.1809451" ry="6.15625"></ellipse>
                <ellipse id="Oval" fill="#C75C5C" cx="52.5380333" cy="52.328125" rx="6.1809451" ry="6.15625"></ellipse>
                <rect id="Rectangle-path" fill="#4F5D73" x="49.4475608" y="86.1875" width="37.0856706" height="55.40625"></rect>
                <rect id="Rectangle-path" fill="#E0E0D1" x="98.8951216" y="86.1875" width="49.4475608" height="6.15625"></rect>
                <rect id="Rectangle-path" fill="#E0E0D1" x="98.8951216" y="98.5" width="49.4475608" height="6.15625"></rect>
                <rect id="Rectangle-path" fill="#E0E0D1" x="98.8951216" y="110.8125" width="49.4475608" height="6.15625"></rect>
                <rect id="Rectangle-path" fill="#E0E0D1" x="98.8951216" y="123.125" width="49.4475608" height="6.15625"></rect>
                <rect id="Rectangle-path" fill="#E0E0D1" x="98.8951216" y="135.4375" width="49.4475608" height="6.15625"></rect>
            </g>
        </g>
        <g id="1464753342_smartphone" transform="translate(252.128222, 0.000000)">
            <g id="Layer_1">
                <ellipse id="Oval" fill="#E0995E" cx="98.8951216" cy="98.5" rx="98.8951216" ry="98.5"></ellipse>
                <g id="Group" opacity="0.2" transform="translate(61.809451, 36.937500)" fill="#231F20">
                    <g id="Shape">
                        <path d="M74.1713412,110.8125 C74.1713412,117.612078 68.6363049,123.125 61.809451,123.125 L12.3618902,123.125 C5.53503634,123.125 0,117.612078 0,110.8125 L0,12.3125 C0,5.51292188 5.53503634,0 12.3618902,0 L61.809451,0 C68.6363049,0 74.1713412,5.51292188 74.1713412,12.3125 L74.1713412,110.8125 L74.1713412,110.8125 Z"></path>
                    </g>
                </g>
                <g id="Group" transform="translate(61.809451, 30.781250)">
                    <path d="M12.3618902,118.507812 C8.10012855,118.507812 4.63570882,115.057234 4.63570882,110.8125 L4.63570882,12.3125 C4.63570882,8.06776562 8.10012855,4.6171875 12.3618902,4.6171875 L61.809451,4.6171875 C66.0712126,4.6171875 69.5356324,8.06776562 69.5356324,12.3125 L69.5356324,110.8125 C69.5356324,115.057234 66.0712126,118.507812 61.809451,118.507812 L12.3618902,118.507812 L12.3618902,118.507812 Z" id="Shape" fill="#4F5D73"></path>
                    <path d="M61.809451,9.234375 C63.5123014,9.234375 64.8999235,10.6164531 64.8999235,12.3125 L64.8999235,110.8125 C64.8999235,112.508547 63.5123014,113.890625 61.809451,113.890625 L12.3618902,113.890625 C10.6590398,113.890625 9.27141765,112.508547 9.27141765,110.8125 L9.27141765,12.3125 C9.27141765,10.6164531 10.6590398,9.234375 12.3618902,9.234375 L61.809451,9.234375 L61.809451,9.234375 Z M61.809451,0 L12.3618902,0 C5.53503634,0 0,5.51292187 0,12.3125 L0,110.8125 C0,117.612078 5.53503634,123.125 12.3618902,123.125 L61.809451,123.125 C68.6363049,123.125 74.1713412,117.612078 74.1713412,110.8125 L74.1713412,12.3125 C74.1713412,5.51292187 68.6363049,0 61.809451,0 L61.809451,0 L61.809451,0 Z" id="Shape" fill="#FFFFFF"></path>
                </g>
                <g id="Group" opacity="0.2" transform="translate(80.352286, 34.941793)" fill="#FFFFFF">
                    <polygon id="Shape" points="0.772618137 0.456644918 49.4506513 117.79477 49.4506513 0.456644918"></polygon>
                </g>
                <polygon id="Shape" fill="#FFFFFF" points="123.618902 153.90625 74.1713412 153.90625 61.809451 129.28125 135.980792 129.28125"></polygon>
                <ellipse id="Oval" fill="#E0E0D1" cx="98.8951216" cy="141.59375" rx="6.1809451" ry="6.15625"></ellipse>
            </g>
        </g>
    </g>
</svg>